<svg xmlns="http://www.w3.org/2000/svg" width="1600" height="900" viewBox="0 0 1600 900" fill="none">
  <defs>
    <linearGradient id="bg" x1="0" y1="0" x2="1" y2="1">
      <stop offset="0" stop-color="#0B3E74"/>
      <stop offset="1" stop-color="#0D1625"/>
    </linearGradient>
    <linearGradient id="stripeR" x1="0" y1="0" x2="1" y2="1">
      <stop offset="0" stop-color="#B91C1C" stop-opacity="0.9"/>
      <stop offset="1" stop-color="#7F1D1D" stop-opacity="0.6"/>
    </linearGradient>
    <linearGradient id="stripeW" x1="0" y1="0" x2="1" y2="1">
      <stop offset="0" stop-color="#E5E7EB" stop-opacity="0.85"/>
      <stop offset="1" stop-color="#9CA3AF" stop-opacity="0.5"/>
    </linearGradient>
    <radialGradient id="glow" cx="75%" cy="20%" r="60%">
      <stop offset="0" stop-color="#38BDF8" stop-opacity="0.45"/>
      <stop offset="1" stop-color="#0D1625" stop-opacity="0"/>
    </radialGradient>
  </defs>
  <rect width="1600" height="900" fill="url(#bg)"/>
  <rect width="1600" height="900" fill="url(#glow)"/>
  <g opacity="0.85">
    <rect x="-200" y="120" width="2000" height="80" fill="url(#stripeW)" transform="rotate(-8 0 0)"/>
    <rect x="-240" y="220" width="2100" height="90" fill="url(#stripeR)" transform="rotate(-8 0 0)"/>
    <rect x="-260" y="330" width="2100" height="90" fill="url(#stripeW)" transform="rotate(-8 0 0)"/>
    <rect x="-280" y="440" width="2100" height="90" fill="url(#stripeR)" transform="rotate(-8 0 0)"/>
    <rect x="-300" y="550" width="2100" height="90" fill="url(#stripeW)" transform="rotate(-8 0 0)"/>
  </g>
  <g fill="#0EA5E9" opacity="0.18">
    <circle cx="1400" cy="180" r="90"/>
    <circle cx="1250" cy="260" r="70"/>
    <circle cx="1320" cy="360" r="60"/>
  </g>
  <g opacity="0.08" stroke="#38BDF8" stroke-width="2">
    <path d="M0 780c220-60 420-60 640 0s420 60 640 0 420-60 640 0" transform="translate(-80 -80)"/>
    <path d="M0 820c220-60 420-60 640 0s420 60 640 0 420-60 640 0" transform="translate(-80 -40)"/>
  </g>
</svg>
